<svg xmlns="http://www.w3.org/2000/svg" width="300" height="280" viewBox="0 0 300 280">
    <path d="M122.9 238.5v-11.5h16.3v-1.1c0-11.5-5.3-19.9-41.7-13.6l-60 10.7 -34.5 47.9 82.8-14.7c24.8-4.3 46.6-5.1 53.4 14.6v-32.3H122.9z"/>
    <path d="M150.5 270.8c0-15.6 9.2-26.3 28-45.1l13.3-13.3 60.6 10.7 34.6 47.8 -79.5-13.7C180.5 251.9 157.7 250.1 150.5 270.8z"/>
    <path d="M153.8 227c6-12.9 18.8-24.5 26.1-31.9l5.2-5.3c22.3-22.3 26.6-31.5 27.9-46.8 0.1-0.8 1.2 3 1.5 5.7 1.2 9 0.5 15.6-2.6 24.6 -4.6 13.5-15.5 24.3-29.6 38.4l-15.3 15.3H153.8z"/>
    <path d="M166.8 40.3c0-0.1 0.4-0.2 0.4 0v17.8c0 16.1-20.6 34.6-28.9 42.8l-30.2 30.3c-10.5 10.4-31.4 31.1-22.6 51 0.3 0.7 0.6 1.2-0.6 0.4 -2.2-1.6-5.6-7.2-6.5-17.4 -1.6-18.1 10.8-34.4 26-49.7l28.8-28.9C162.5 57.4 165.3 52.3 166.8 40.3z"/>
    <path d="M138.3 131.2c8.2-8.2 28.9-26.7 28.9-42.8V70.7c0-0.2-0.4-0.1-0.4 0 -1.4 12-4.3 17.1-33.5 46.4l-26.8 26.8c-9.7 9.7-18.7 19.9-18.3 36.4 0.3 10.1 5.3 18.5 13 20.4 3.1 0.7 3 0.3 2.2 0 -10.8-5.1-10-24.6 7.4-42L138.3 131.2z"/>
    <path d="M104.7 104.3c-22.3 22.3-26.5 31.5-27.9 46.8 -0.1 0.8-1.2-3-1.6-5.7 -1.1-9-0.5-15.6 2.6-24.6 4.6-13.5 15.5-24.3 29.6-38.4l25.9-25.9c29.2-29.3 32.1-34.4 33.5-46.4 0-0.1 0.4-0.2 0.4 0v17.8c0 16.1-20.6 34.6-28.9 42.8L104.7 104.3z"/>
    <path d="M150.9 256.1c0 0.1-0.4 0.1-0.4 0v-17.6h7.4C153.7 244.4 151.6 250.2 150.9 256.1z"/>
    <path d="M150.9 227c0 0.1-0.4 0.1-0.4 0v-18c0-13.5 13.2-28.1 26.3-41.1l8.5-8.5c6.9-6.9 27.8-27.5 19-47.5 -0.3-0.7-0.6-1.2 0.6-0.4 2.2 1.6 5.6 7.2 6.5 17.3 1.6 18.2-10.8 34.4-26 49.7l-7.9 7.9C158.7 205.4 152.3 213.9 150.9 227z"/>
    <path d="M150.9 195.9c0 0.1-0.4 0.1-0.4 0v-18.2c0-12.9 12.8-26.7 18.9-32.9l9.6-9.6c17.4-17.4 18.2-36.9 7.4-42 -0.7-0.3-0.9-0.7 2.2-0.1 7.6 2 12.7 10.3 13 20.4 0.4 16.5-8.4 26.6-18.1 36.3l-7.8 7.8C159.5 173.9 152.4 183.4 150.9 195.9z"/>
    <path d="M288.1 235.2c2.5 0 4.6 0.9 6.4 2.7 1.8 1.8 2.6 3.9 2.6 6.4s-0.9 4.6-2.7 6.4c-1.8 1.8-3.9 2.6-6.4 2.6 -2.8 0-5.1-1.1-6.9-3.2 -1.4-1.7-2.2-3.7-2.2-5.9 0-2.2 0.7-4.2 2.2-5.9C283.1 236.3 285.4 235.2 288.1 235.2zM288.1 236.2c-2.2 0-4.1 0.8-5.7 2.4 -1.6 1.6-2.3 3.5-2.3 5.7 0 2.2 0.8 4.1 2.3 5.7 1.6 1.6 3.5 2.4 5.7 2.4 2.2 0 4.1-0.8 5.7-2.4 1.6-1.6 2.4-3.5 2.4-5.7 0-2.2-0.8-4.1-2.4-5.7C292.3 237 290.4 236.2 288.1 236.2zM289.3 244.2l2 3 0.3 0.3c0.6 0.9 1.2 1.4 1.7 1.4l0.3 0c0.1 0 0.2 0.1 0.2 0.2 0 0.2-0.4 0.4-1.2 0.4 -0.9 0-1.7-0.5-2.4-1.6l-1.9-2.8 -0.1-0.2c-0.1-0.2-0.3-0.2-0.5-0.2h-1l-0.1 0 0 0.2v2.6c0 0.6 0.1 1 0.2 1.2 0.2 0.2 0.5 0.3 1.1 0.4 0.2 0 0.4 0.1 0.4 0.3 0 0.2-0.1 0.2-0.4 0.2 -0.1 0-0.2 0-0.5 0 -0.2 0-0.5 0-1 0h-1.1c-0.2 0-0.4 0-0.6 0 -0.2 0-0.3 0-0.4 0 -0.2 0-0.3-0.1-0.3-0.3 0-0.1 0.1-0.2 0.3-0.3 0.4-0.1 0.6-0.3 0.7-0.5 0.1-0.2 0.2-0.8 0.2-1.6v-5.4l0-0.8c0-0.7-0.2-1.1-0.7-1.2l-0.4-0.1c-0.2 0-0.3-0.1-0.3-0.3 0-0.2 0.1-0.2 0.4-0.2 0.1 0 0.2 0 0.5 0 0.2 0 0.4 0 0.7 0 0.2 0 0.6 0 1.2-0.1 0.4 0 0.8 0 1.1 0 2.4 0 3.6 0.9 3.6 2.7C291.1 242.7 290.5 243.6 289.3 244.2zM286.9 243.9h0.9c1.3 0 2-0.6 2-1.9 0-0.7-0.2-1.2-0.7-1.6 -0.5-0.4-1.1-0.7-1.8-0.7 -0.5 0-0.7 0.2-0.7 0.6l0 0.2v3c0 0.2 0 0.3 0.1 0.4C286.6 243.9 286.7 243.9 286.9 243.9z"/>
</svg>
