<?xml version="1.0" encoding="utf-8"?>
<!DOCTYPE svg PUBLIC "-//W3C//DTD SVG 1.1//EN" "http://www.w3.org/Graphics/SVG/1.1/DTD/svg11.dtd">
<svg version="1.1" id="Ebene_1" xmlns="http://www.w3.org/2000/svg" xmlns:xlink="http://www.w3.org/1999/xlink" x="0px" y="0px"
	 width="150px" height="150px" viewBox="0 0 300 300" enable-background="new 0 0 300 300" xml:space="preserve">
<circle fill="#39B54A" cx="150" cy="150" r="146.488"/>
<g>
	<path fill="#FFFFFF" d="M256.947,100.048c0,3.683-1.298,6.812-3.864,9.388L153.17,209.34l-18.766,18.765
		c-2.576,2.576-5.705,3.864-9.378,3.864c-3.683,0-6.812-1.288-9.388-3.864L96.874,209.34l-49.957-49.957
		c-2.576-2.576-3.864-5.695-3.864-9.377c0-3.683,1.288-6.812,3.864-9.388l18.775-18.765c2.565-2.576,5.695-3.864,9.377-3.864
		s6.812,1.288,9.388,3.864l40.569,40.71l90.517-90.667c2.575-2.566,5.704-3.864,9.388-3.864c3.672,0,6.802,1.298,9.377,3.864
		l18.775,18.775C255.649,93.247,256.947,96.376,256.947,100.048z"/>
</g>
</svg>
