<?xml version="1.0" encoding="utf-8"?>
<!-- Generator: Adobe Illustrator 16.0.4, SVG Export Plug-In . SVG Version: 6.00 Build 0)  -->
<!DOCTYPE svg PUBLIC "-//W3C//DTD SVG 1.1//EN" "http://www.w3.org/Graphics/SVG/1.1/DTD/svg11.dtd">
<svg version="1.1" id="Ebene_1" xmlns="http://www.w3.org/2000/svg" xmlns:xlink="http://www.w3.org/1999/xlink" x="0px" y="0px"
	 width="300px" height="280px" viewBox="0 0 300 280" enable-background="new 0 0 300 280" xml:space="preserve">
<g>
	<g>
		<path fill="#565555" d="M122.908,238.461v-11.465h16.268v-1.082c0-11.467-5.287-19.877-41.75-13.561l-59.953,10.674l-34.49,47.852
			l82.771-14.68c24.803-4.256,46.588-5.145,53.422,14.574v-32.312H122.908z"/>
		<path fill="#565555" d="M150.484,270.773c0-15.609,9.225-26.328,28.045-45.15l13.271-13.27l60.621,10.674l34.561,47.805
			l-79.504-13.719C180.535,251.943,157.686,250.129,150.484,270.773z"/>
	</g>
	<g>
		<path fill="#565555" d="M153.844,226.975c6.012-12.885,18.797-24.543,26.148-31.893l5.229-5.318
			c22.277-22.258,26.551-31.459,27.898-46.805c0.066-0.797,1.211,3,1.549,5.695c1.156,9.033,0.492,15.598-2.592,24.639
			c-4.578,13.527-15.451,24.301-29.559,38.4l-15.348,15.281H153.844z"/>
		<path fill="#565555" d="M166.777,40.291c0-0.121,0.369-0.191,0.369,0v17.754c0,16.057-20.643,34.584-28.859,42.75l-30.234,30.318
			c-10.457,10.447-31.379,31.094-22.586,51.01c0.283,0.662,0.551,1.23-0.568,0.438c-2.24-1.582-5.625-7.16-6.529-17.354
			c-1.604-18.146,10.773-34.398,26.041-49.666l28.84-28.881C162.498,57.406,165.348,52.262,166.777,40.291z"/>
		<path fill="#565555" d="M138.287,131.184c8.217-8.166,28.859-26.689,28.859-42.754V70.672c0-0.176-0.369-0.113-0.369,0
			c-1.43,11.975-4.279,17.125-33.527,46.375l-26.787,26.834c-9.734,9.73-18.668,19.938-18.252,36.418
			c0.252,10.09,5.33,18.455,12.961,20.43c3.143,0.676,2.959,0.264,2.211-0.047c-10.785-5.102-10.014-24.58,7.424-42.021
			L138.287,131.184z"/>
		<path fill="#565555" d="M104.652,104.328c-22.258,22.258-26.539,31.467-27.887,46.797c-0.055,0.805-1.209-3.006-1.557-5.693
			c-1.146-9.033-0.482-15.592,2.588-24.635c4.59-13.523,15.467-24.297,29.57-38.396l25.883-25.924
			c29.248-29.258,32.098-34.408,33.527-46.383c0-0.117,0.369-0.176,0.369,0v17.758c0,16.064-20.643,34.592-28.859,42.754
			L104.652,104.328z"/>
		<path fill="#565555" d="M150.859,256.107c-0.008,0.139-0.367,0.139-0.367,0v-17.646h7.387
			C153.705,244.445,151.564,250.229,150.859,256.107z"/>
		<path fill="#565555" d="M150.926,226.996c-0.025,0.141-0.383,0.141-0.383,0v-17.955c0-13.508,13.219-28.09,26.338-41.117l8.5-8.5
			c6.859-6.855,27.834-27.535,19.047-47.451c-0.297-0.664-0.568-1.234,0.559-0.439c2.229,1.586,5.617,7.158,6.521,17.346
			c1.611,18.152-10.764,34.412-26.035,49.68l-7.861,7.9C158.65,205.422,152.342,213.91,150.926,226.996z"/>
		<path fill="#565555" d="M150.9,195.852c-0.02,0.133-0.379,0.133-0.379,0v-18.248c0-12.867,12.76-26.742,18.947-32.947l9.605-9.572
			c17.447-17.438,18.223-36.918,7.432-42.014c-0.75-0.316-0.947-0.719,2.199-0.055c7.633,1.971,12.715,10.34,12.961,20.441
			c0.422,16.471-8.367,26.613-18.098,36.336l-7.785,7.783C159.51,173.857,152.387,183.375,150.9,195.852z"/>
	</g>
	<g>
		<path fill="#565555" d="M288.135,235.215c2.52,0,4.641,0.881,6.41,2.65c1.77,1.76,2.648,3.9,2.648,6.404s-0.879,4.641-2.652,6.404
			c-1.766,1.762-3.898,2.643-6.406,2.643c-2.799,0-5.098-1.057-6.877-3.188c-1.443-1.719-2.178-3.672-2.178-5.859
			c0-2.229,0.723-4.18,2.166-5.875C283.053,236.279,285.352,235.215,288.135,235.215z M288.135,236.213
			c-2.215,0-4.113,0.789-5.699,2.365c-1.557,1.574-2.342,3.48-2.342,5.705c0,2.211,0.785,4.117,2.342,5.699
			c1.586,1.564,3.484,2.357,5.699,2.357c2.221,0,4.123-0.793,5.691-2.357c1.57-1.582,2.365-3.488,2.365-5.699
			c0-2.242-0.795-4.141-2.357-5.713C292.262,237.002,290.359,236.213,288.135,236.213z M289.279,244.248l2.02,2.955l0.258,0.346
			c0.627,0.928,1.197,1.406,1.689,1.428l0.256,0.004c0.148,0.01,0.236,0.092,0.217,0.23c-0.01,0.242-0.414,0.367-1.189,0.367
			c-0.893,0-1.686-0.539-2.404-1.607l-1.891-2.85l-0.1-0.166c-0.104-0.164-0.275-0.246-0.514-0.246h-1.01l-0.104,0.008l-0.047,0.158
			v2.621c0,0.6,0.088,0.98,0.248,1.168c0.154,0.18,0.508,0.295,1.059,0.357c0.242,0.029,0.367,0.117,0.389,0.281
			c0,0.162-0.117,0.246-0.367,0.246c-0.072,0-0.227-0.01-0.471-0.037c-0.189-0.029-0.506-0.035-0.953-0.035h-1.131
			c-0.158,0-0.367,0.006-0.633,0.043c-0.205,0.02-0.33,0.029-0.389,0.029c-0.221,0-0.334-0.084-0.334-0.256
			c0-0.133,0.092-0.213,0.283-0.254c0.385-0.1,0.646-0.264,0.748-0.518c0.104-0.25,0.162-0.785,0.162-1.623v-5.365l-0.025-0.771
			c0-0.723-0.238-1.119-0.746-1.189l-0.359-0.055c-0.217-0.043-0.338-0.139-0.338-0.293c0-0.162,0.125-0.25,0.359-0.25
			c0.059,0,0.238,0.012,0.543,0.029c0.17,0.029,0.383,0.029,0.67,0.029c0.246,0,0.639-0.029,1.174-0.059
			c0.426-0.021,0.779-0.037,1.084-0.037c2.42,0,3.639,0.9,3.639,2.678C291.072,242.734,290.477,243.607,289.279,244.248z
			 M286.887,243.916h0.852c1.322,0,1.982-0.639,1.982-1.932c0-0.652-0.246-1.203-0.727-1.637c-0.5-0.441-1.117-0.668-1.848-0.668
			c-0.459,0-0.693,0.197-0.693,0.559l0.008,0.248v2.998c0,0.219,0.029,0.334,0.059,0.381
			C286.562,243.902,286.688,243.916,286.887,243.916z"/>
	</g>
</g>
</svg>
