<?xml version="1.0" standalone="no"?>
<!DOCTYPE svg PUBLIC "-//W3C//DTD SVG 20010904//EN"
 "http://www.w3.org/TR/2001/REC-SVG-20010904/DTD/svg10.dtd">
<svg version="1.0" xmlns="http://www.w3.org/2000/svg"
 width="700.000000pt" height="700.000000pt" viewBox="0 0 700.000000 700.000000"
 preserveAspectRatio="xMidYMid meet">
<metadata>
Created by potrace 1.11, written by Peter Selinger 2001-2013
</metadata>
<g transform="translate(0.000000,700.000000) scale(0.100000,-0.100000)"
fill="#000000" stroke="none">
<path d="M360 6147 c0 -4 18 -89 41 -190 22 -100 42 -191 45 -202 2 -11 19
-90 38 -175 65 -290 115 -515 120 -540 3 -14 20 -95 40 -180 19 -85 37 -166
40 -180 3 -14 37 -169 76 -345 40 -176 74 -329 76 -340 2 -11 11 -51 19 -90 9
-38 25 -109 36 -157 10 -49 28 -127 39 -175 11 -49 23 -98 25 -111 2 -13 6
-31 9 -40 3 -9 8 -33 11 -52 3 -19 13 -64 21 -100 20 -85 20 -86 49 -220 14
-63 32 -144 41 -180 8 -36 19 -85 24 -110 5 -25 11 -54 14 -65 2 -11 14 -63
26 -115 12 -52 28 -126 36 -165 9 -38 17 -77 19 -85 11 -45 37 -166 73 -330
23 -102 71 -318 107 -480 36 -162 67 -304 70 -315 2 -11 11 -49 19 -85 8 -36
24 -111 36 -167 16 -74 27 -102 39 -105 9 -2 257 -3 551 -3 l535 1 11 44 c11
41 54 217 180 740 25 102 47 192 49 200 2 8 24 98 49 200 77 313 257 1054 262
1079 3 14 7 28 9 31 2 4 6 20 9 36 3 16 35 151 72 299 36 149 67 277 69 285 2
8 35 145 74 303 39 159 71 295 71 303 0 34 17 9 29 -43 7 -32 44 -186 83 -343
38 -157 71 -292 73 -300 7 -35 38 -160 95 -395 34 -137 94 -385 134 -550 41
-165 97 -396 125 -513 29 -117 54 -221 56 -230 6 -28 105 -434 115 -472 10
-38 109 -444 115 -473 2 -10 7 -27 10 -37 3 -10 8 -29 11 -42 3 -13 7 -32 9
-43 3 -11 7 -31 10 -44 2 -13 7 -26 10 -30 8 -7 1096 -8 1101 0 2 3 6 19 8 35
3 16 33 151 67 299 33 149 63 281 65 295 3 14 21 95 40 180 20 85 37 166 40
180 3 14 12 54 20 90 13 54 75 337 89 405 3 11 21 92 41 180 20 88 40 178 45
200 4 22 40 184 79 360 39 176 73 327 75 335 1 8 17 80 35 160 17 80 33 152
35 160 2 8 67 301 144 650 78 349 143 644 145 655 3 11 10 43 16 70 6 28 13
58 15 67 2 10 24 109 49 220 25 112 47 214 50 228 3 14 19 86 36 160 31 139
36 161 45 206 3 14 13 56 21 92 9 40 12 67 6 71 -6 3 -250 6 -543 6 l-533 0
-8 -30 c-4 -16 -10 -43 -12 -60 -3 -16 -14 -77 -25 -135 -11 -58 -22 -117 -25
-133 -3 -15 -7 -35 -10 -45 -3 -9 -7 -35 -11 -57 -3 -22 -12 -71 -20 -110 -8
-38 -17 -86 -20 -105 -7 -44 -28 -150 -60 -312 -13 -70 -27 -142 -30 -160 -3
-18 -12 -67 -20 -108 -8 -41 -16 -86 -19 -100 -2 -14 -15 -86 -30 -160 -14
-74 -27 -146 -30 -160 -2 -14 -14 -74 -25 -135 -12 -60 -24 -126 -27 -145 -3
-19 -7 -42 -9 -50 -2 -8 -7 -29 -10 -47 -3 -17 -16 -87 -29 -155 -14 -68 -29
-150 -35 -183 -6 -33 -13 -71 -16 -85 -3 -14 -8 -38 -10 -55 -3 -16 -12 -61
-20 -100 -8 -38 -17 -86 -20 -105 -3 -19 -14 -80 -25 -135 -11 -55 -22 -113
-25 -130 -2 -16 -7 -41 -10 -55 -4 -21 -26 -138 -49 -260 -3 -14 -7 -36 -10
-50 -3 -13 -8 -42 -11 -65 -4 -22 -10 -56 -15 -75 -5 -19 -11 -51 -14 -70 -11
-71 -34 -181 -39 -186 -2 -3 -8 12 -11 33 -7 34 -16 76 -61 268 -8 33 -30 128
-49 210 -19 83 -60 260 -91 395 -32 135 -63 272 -70 305 -7 33 -34 150 -60
260 -26 110 -48 207 -50 215 -2 8 -13 58 -25 110 -12 52 -23 102 -25 110 -2 8
-15 65 -30 125 -21 88 -53 227 -90 395 -2 8 -29 125 -60 260 -31 135 -59 252
-60 260 -2 8 -18 76 -35 150 -18 74 -33 142 -35 150 -2 8 -17 76 -34 151 -18
75 -33 145 -35 155 -14 68 -51 200 -57 204 -11 7 -907 5 -914 -2 -6 -6 -18
-48 -31 -108 -3 -13 -14 -63 -25 -110 -11 -47 -22 -92 -24 -100 -2 -8 -17 -76
-35 -150 -17 -74 -42 -184 -56 -245 -14 -60 -28 -119 -30 -130 -3 -11 -7 -30
-10 -42 -2 -12 -23 -99 -45 -195 -23 -95 -42 -180 -44 -188 -5 -25 -74 -322
-85 -365 -23 -96 -62 -262 -66 -283 -2 -12 -14 -62 -25 -110 -12 -48 -22 -94
-24 -102 -5 -25 -155 -674 -160 -695 -5 -19 -92 -391 -137 -585 -11 -47 -21
-92 -23 -100 -2 -8 -15 -64 -29 -123 -13 -60 -26 -111 -29 -113 -4 -4 -10 24
-32 139 -2 9 -16 80 -30 157 -14 77 -28 150 -31 162 -2 13 -9 50 -15 83 -6 33
-26 138 -45 233 -19 96 -36 188 -39 205 -7 39 -78 413 -105 552 -11 55 -22
114 -25 130 -2 17 -13 75 -24 130 -11 55 -22 111 -25 125 -2 14 -18 97 -35
185 -17 88 -32 171 -35 185 -13 68 -38 202 -51 265 -8 39 -17 86 -20 105 -3
19 -10 58 -15 85 -6 28 -12 61 -15 75 -3 14 -14 75 -25 135 -12 61 -32 166
-45 235 -14 69 -27 136 -29 150 -3 14 -8 39 -11 55 -20 104 -47 245 -51 270
-2 17 -8 44 -12 60 l-8 30 -542 0 c-298 0 -542 -3 -542 -8z"/>
</g>
</svg>
